<?xml version="1.0" encoding="utf-8"?>
<!-- Generator: Adobe Illustrator 22.1.0, SVG Export Plug-In . SVG Version: 6.00 Build 0)  -->
<svg version="1.1" id="Layer_1" xmlns="http://www.w3.org/2000/svg" xmlns:xlink="http://www.w3.org/1999/xlink" x="0px" y="0px"
	 viewBox="0 0 500 500" style="enable-background:new 0 0 500 500;" xml:space="preserve">
<style type="text/css">
	.st0{fill:#514DA3;}
	.st1{fill:#332524;}
	.st2{fill:#FFFFFF;}
	.st3{fill:#2F363E;}
	.st4{fill:#F7AB1B;}
	.st5{fill:#F8C68F;}
	.st6{fill:#282928;}
	.st7{fill:#DF584C;}
	.st8{fill:#E5E5E9;}
	.st9{fill:#5B6375;}
</style>
<rect x="0.3" class="st0" width="500" height="500"/>
<g>
	<path class="st1" d="M318.1,425H105.2c-9.2,0-16.6-7.4-16.6-16.6V110.9c0-9.2,7.4-16.6,16.6-16.6h212.9c9.2,0,16.6,7.4,16.6,16.6
		v297.5C334.7,417.6,327.2,425,318.1,425z"/>
	<path class="st2" d="M286.7,409.1H137.4c-17.9,0-32.3-14.5-32.3-32.3V142.6c0-17.9,14.5-32.3,32.3-32.3h149.3
		c17.9,0,32.3,14.5,32.3,32.3v234.2C319,394.6,304.6,409.1,286.7,409.1z"/>
	<path class="st3" d="M301.2,158.9l-2.6-2.6c-0.2-0.3-0.6-0.3-0.9,0l-10.3,10l-5.3-5.2c-0.2-0.3-0.6-0.3-0.9,0l-2.7,2.6
		c-0.3,0.2-0.3,0.6,0,0.9l8.4,8.3c0.2,0.3,0.6,0.3,0.9,0l1.9-1.8c0,0,0,0,0,0l0.3-0.3l0.5-0.4c0,0,0,0,0,0l10.6-10.3
		C301.4,159.6,301.4,159.2,301.2,158.9z"/>
	<path class="st3" d="M303,151.5v26h-26v-26H303 M307.3,147.1H303h-26h-4.4v4.4v26v4.4h4.4h26h4.4v-4.4v-26V147.1L307.3,147.1z"/>
	<path class="st3" d="M303,202.2v26h-26v-26H303 M307.4,197.8H303h-26h-4.4v4.4v26v4.4h4.4h26h4.4v-4.4v-26V197.8L307.4,197.8z"/>
	<path class="st3" d="M302.9,252.9v26h-26v-26H302.9 M307.3,248.5h-4.4h-26h-4.4v4.4v26v4.4h4.4h26h4.4v-4.4v-26V248.5L307.3,248.5z
		"/>
	<path class="st3" d="M302.9,303.6v26h-26v-26H302.9 M307.3,299.2h-4.4h-26h-4.4v4.4v26v4.4h4.4h26h4.4v-4.4v-26V299.2L307.3,299.2z
		"/>
	<path class="st3" d="M302.9,354.3v26h-26v-26H302.9 M307.3,349.9h-4.4h-26h-4.4v4.4v26v4.4h4.4h26h4.4v-4.4v-26V349.9L307.3,349.9z
		"/>
	<polygon class="st4" points="130.5,148.9 134,159.6 145.3,159.6 136.1,166.2 139.6,176.8 130.5,170.2 121.4,176.8 124.9,166.2 
		115.7,159.6 127,159.6 	"/>
	<polygon class="st4" points="161.1,148.9 164.6,159.6 175.9,159.6 166.8,166.2 170.2,176.8 161.1,170.2 152,176.8 155.5,166.2 
		146.4,159.6 157.6,159.6 	"/>
	<polygon class="st4" points="191.7,148.9 195.2,159.6 206.5,159.6 197.4,166.2 200.9,176.8 191.7,170.2 182.6,176.8 186.1,166.2 
		177,159.6 188.3,159.6 	"/>
	<polygon class="st4" points="222.4,148.9 225.8,159.6 237.1,159.6 228,166.2 231.5,176.8 222.4,170.2 213.2,176.8 216.7,166.2 
		207.6,159.6 218.9,159.6 	"/>
	<polygon class="st4" points="253,148.9 256.5,159.6 267.7,159.6 258.6,166.2 262.1,176.8 253,170.2 243.9,176.8 247.3,166.2 
		238.2,159.6 249.5,159.6 	"/>
	<polygon class="st4" points="130.5,199.4 134,210.2 145.3,210.2 136.1,216.7 139.6,227.4 130.5,220.8 121.4,227.4 124.9,216.7 
		115.7,210.2 127,210.2 	"/>
	<polygon class="st4" points="161.1,199.4 164.6,210.2 175.9,210.2 166.8,216.7 170.2,227.4 161.1,220.8 152,227.4 155.5,216.7 
		146.4,210.2 157.6,210.2 	"/>
	<polygon class="st4" points="191.7,199.4 195.2,210.2 206.5,210.2 197.4,216.7 200.9,227.4 191.7,220.8 182.6,227.4 186.1,216.7 
		177,210.2 188.3,210.2 	"/>
	<polygon class="st4" points="222.4,199.4 225.8,210.2 237.1,210.2 228,216.7 231.5,227.4 222.4,220.8 213.2,227.4 216.7,216.7 
		207.6,210.2 218.9,210.2 	"/>
	<polygon class="st4" points="130.5,250 134,260.7 145.3,260.7 136.1,267.3 139.6,278 130.5,271.4 121.4,278 124.9,267.3 
		115.7,260.7 127,260.7 	"/>
	<polygon class="st4" points="161.1,250 164.6,260.7 175.9,260.7 166.8,267.3 170.2,278 161.1,271.4 152,278 155.5,267.3 
		146.4,260.7 157.6,260.7 	"/>
	<polygon class="st4" points="191.7,250 195.2,260.7 206.5,260.7 197.4,267.3 200.9,278 191.7,271.4 182.6,278 186.1,267.3 
		177,260.7 188.3,260.7 	"/>
	<polygon class="st4" points="130.5,298.9 134,309.6 145.3,309.6 136.1,316.2 139.6,326.9 130.5,320.3 121.4,326.9 124.9,316.2 
		115.7,309.6 127,309.6 	"/>
	<polygon class="st4" points="161.1,298.9 164.6,309.6 175.9,309.6 166.8,316.2 170.2,326.9 161.1,320.3 152,326.9 155.5,316.2 
		146.4,309.6 157.6,309.6 	"/>
	<polygon class="st4" points="130.5,351.1 134,361.8 145.3,361.8 136.1,368.4 139.6,379.1 130.5,372.5 121.4,379.1 124.9,368.4 
		115.7,361.8 127,361.8 	"/>
	<path class="st5" d="M315.9,176.3c0,0-24.4-8.7-25.3-7.8c-0.8,0.9,12,24.1,12,24.1l9-5.2L315.9,176.3z"/>
	<path class="st6" d="M300.6,171.1c0,0-9.7-3.2-10-2.7c-0.4,0.7,4.2,9.4,4.2,9.4L300.6,171.1z"/>
	<path class="st7" d="M315.9,176.3l95.4,78.2l-13,15.8l-95.6-77.6c0,0-0.2-3.3,2.7-3c0,0-0.9-3.1,2.7-3.1c0,0-0.8-2.9,2.9-3.7
		c0,0-0.8-2.9,2.3-3.1C313.3,179.7,312.4,177.5,315.9,176.3z"/>
	<polygon class="st8" points="398.1,270.2 402.8,274 415.8,258.1 411,254.2 	"/>
	<path class="st9" d="M402.7,274l4.7,3.8c2.1,1.7,5.3,1.4,7-0.7l6.7-8.2c1.7-2.1,1.4-5.2-0.7-7l-4.8-3.9L402.7,274z"/>
</g>
</svg>
