<svg id="Ebene_1" data-name="Ebene 1" xmlns="http://www.w3.org/2000/svg" xmlns:xlink="http://www.w3.org/1999/xlink" viewBox="0 0 138 55"><defs><style>.cls-1{fill:none;}.cls-2{clip-path:url(#clip-path);}.cls-3{fill:#cbcccc;}</style><clipPath id="clip-path"><polygon class="cls-1" points="0.03 52.42 138.65 52.42 138.65 -0.14 0.03 -0.14 0.03 52.42 0.03 52.42"/></clipPath></defs><title>hdbw-logo</title><g class="cls-2"><path class="cls-3" d="M42.61,2.94c5.16,1.1,8.25,4.48,10.83,9a34.66,34.66,0,0,1,3.06,8.49c-1.6-.47-7.24-1.8-7.26-1.85a28.92,28.92,0,0,0-4.08-8.33c-2.15-2.78-3.34-4.35-7-5.71-2.49-.94-6.13-.34-6.13-.37A19.1,19.1,0,0,1,42.61,2.94"/><path class="cls-3" d="M39.92,1C33.64-1.23,25.25,0,20.4,2.7,12.27,7.14,7.79,16.09,5.33,21.36A68.58,68.58,0,0,0,1.82,31.54C1,34.59,0,39.46,0,39.46l6.9,2.48s.86-4.89,1.65-8a69,69,0,0,1,3.32-10.24c2.36-5.33,6.71-14.49,14.75-19.1A24.46,24.46,0,0,1,39.92,1"/><path class="cls-3" d="M63.78,25.14H46.61V52H63.78c7.58,0,13.08-5.91,13.08-13.7s-5.5-13.15-13.08-13.15m0,22.15H51.24V29.83H63.78c4.84,0,8.39,3.62,8.39,8.68s-3.55,8.79-8.39,8.79"/><path d="M114.3,42.89l-3.83,6.88q-1.42,2.53-2.8,2.64t-3-2.65L91.23,25.14h6l10.41,19.53,3.74-7-6.8-12.5h6L121,44.68,131.6,25.14h6L123.82,49.75Q122.4,52.29,121,52.4t-3-2.64l-3.76-6.87Z"/></g><path d="M72.05,36.4v4.66H82.66a7.13,7.13,0,0,1,4.05,1,2.35,2.35,0,0,1,0,4.25,7.56,7.56,0,0,1-4.09,1H67.43V29.8H82.66a7.31,7.31,0,0,1,4.09,1,2.58,2.58,0,0,1,0,4.55,6.93,6.93,0,0,1-4.05,1Zm20.59-3.28A6.88,6.88,0,0,0,90,27.64a11.91,11.91,0,0,0-8-2.5H62.78V52H82a12.16,12.16,0,0,0,8-2.43,6.69,6.69,0,0,0-.15-10.81,6.94,6.94,0,0,0,2.82-5.6"/><path d="M44.42,25.14V52H39.78V40.81H24.06V36.14H39.78v-11ZM17.33,52H22V25.14H17.33V52Z"/></svg>